<?xml version="1.0" encoding="UTF-8"?>
<svg version="1.1" xmlns="http://www.w3.org/2000/svg" width="659" height="659">
<path d="M0 0 C217.47 0 434.94 0 659 0 C659 217.47 659 434.94 659 659 C441.53 659 224.06 659 0 659 C0 441.53 0 224.06 0 0 Z " fill="#F9F8F4" transform="translate(0,0)"/>
<path d="M0 0 C217.47 0 434.94 0 659 0 C659 217.47 659 434.94 659 659 C441.53 659 224.06 659 0 659 C0 441.53 0 224.06 0 0 Z M288 21 C286.01041667 21.28125 284.02083333 21.5625 282.03125 21.84375 C232.92237513 29.10604722 183.9703534 48.98277995 145 80 C144.11570312 80.70382813 143.23140625 81.40765625 142.3203125 82.1328125 C139.52325558 84.39478027 136.75827762 86.69091699 134 89 C133.46648926 89.44182617 132.93297852 89.88365234 132.38330078 90.33886719 C125.50470175 96.04423331 118.88786603 101.93315757 112.5625 108.25 C112.00780029 108.80389404 111.45310059 109.35778809 110.8815918 109.9284668 C106.73648464 114.1295301 102.84537247 118.52467445 99 123 C98.19671265 123.9271582 98.19671265 123.9271582 97.37719727 124.87304688 C83.49113332 141.00016903 71.46740215 158.51325746 61.07470703 177.08105469 C60.37940862 178.32254616 59.67766673 179.56046021 58.96826172 180.79394531 C43.41266506 207.84781512 33.75958098 238.45836874 28 269 C27.84837402 269.75829102 27.69674805 270.51658203 27.54052734 271.29785156 C12.54003474 346.41816357 29.35008926 426.72083287 68 492 C68.46083984 492.77956055 68.92167969 493.55912109 69.39648438 494.36230469 C74.9941801 503.754552 81.14012117 512.49111184 88 521 C88.763125 521.95648437 89.52625 522.91296875 90.3125 523.8984375 C94.63650644 529.25840382 99.11491997 534.44593907 103.75390625 539.53515625 C105.25179512 541.17892647 106.73883167 542.83265156 108.21484375 544.49609375 C116.83343172 554.20525875 125.83249641 562.92619084 136 571 C137.16931773 571.95799122 138.337219 572.91771325 139.50390625 573.87890625 C158.27463909 589.2656057 179.05795413 601.66278767 201 612 C201.68852051 612.32564941 202.37704102 612.65129883 203.08642578 612.98681641 C234.5978508 627.75937245 268.32463327 636.85159337 303 640 C304.21945312 640.11214844 305.43890625 640.22429688 306.6953125 640.33984375 C335.83870162 642.56058217 365.42241535 641.18798102 394 635 C394.97614258 634.79391113 395.95228516 634.58782227 396.95800781 634.37548828 C419.84217306 629.4769726 441.90742127 622.15377951 463 612 C463.91990723 611.56316895 464.83981445 611.12633789 465.78759766 610.67626953 C503.22886587 592.8170237 538.28826488 567.02314191 565 535 C565.45213867 534.46165527 565.90427734 533.92331055 566.37011719 533.36865234 C622.58805343 466.21246589 647.99155172 382.05381323 640.48228455 294.89584351 C639.69692923 286.87061044 638.45959078 278.92880414 637 271 C636.81808105 269.97986816 636.63616211 268.95973633 636.44873047 267.90869141 C627.59682972 219.58316714 606.06487 173.03080974 575 135 C574.52079102 134.41186523 574.04158203 133.82373047 573.54785156 133.21777344 C562.06259894 119.21194777 549.80538785 105.751299 536 94 C535.08992187 93.20078125 534.17984375 92.4015625 533.2421875 91.578125 C467.50797445 34.2562003 374.06158909 7.89876072 288 21 Z " fill="#F9F8F5" transform="translate(0,0)"/>
<path d="M0 0 C2.39271979 2.10574647 4.76339105 4.23446094 7.125 6.375 C7.70507812 6.89868164 8.28515625 7.42236328 8.8828125 7.96191406 C18.47151985 16.64227414 27.73477846 25.39026663 35.82421875 35.51953125 C37.33694416 37.39695447 38.88079175 39.24979414 40.45703125 41.07421875 C86.3982599 94.28885678 110.04840007 165.85655387 109.5 235.625 C109.49302094 237.22158951 109.49302094 237.22158951 109.48590088 238.85043335 C109.14259087 306.09203646 88.90917806 371.48503838 48.125 425.375 C47.68446289 425.95830078 47.24392578 426.54160156 46.79003906 427.14257812 C41.29307018 434.37563726 35.566699 441.27476926 29.3828125 447.93359375 C27.45156147 450.02188422 25.5918194 452.14591534 23.75 454.3125 C16.45824522 462.66549609 8.5569957 470.29647433 -0.12890625 477.18359375 C-2.91938346 479.41041838 -5.60930834 481.73085502 -8.3125 484.0625 C-22.08822677 495.521481 -36.99200061 505.13275712 -52.875 513.375 C-54.22803223 514.09018799 -54.22803223 514.09018799 -55.60839844 514.81982422 C-70.30439049 522.56595075 -85.17290442 528.96346457 -100.875 534.375 C-101.68710937 534.66068848 -102.49921875 534.94637695 -103.3359375 535.24072266 C-125.16271593 542.86080376 -147.89890642 547.1784662 -170.875 549.375 C-171.59091309 549.44557617 -172.30682617 549.51615234 -173.04443359 549.58886719 C-253.99532379 557.18366403 -333.71259356 530.35648462 -396.5625 479.875 C-408.86170728 469.6657332 -420.51507348 458.54949614 -430.875 446.375 C-431.66261719 445.47652344 -432.45023437 444.57804688 -433.26171875 443.65234375 C-445.9099534 429.12610224 -456.88573912 413.58826539 -466.44580078 396.87353516 C-467.389871 395.22310561 -468.34124978 393.57683277 -469.30029297 391.93505859 C-508.928934 324.04519133 -519.38488398 236.73912581 -500.2734375 160.796875 C-498.63206916 154.60604112 -496.79866434 148.48338964 -494.875 142.375 C-494.57754883 141.41964355 -494.28009766 140.46428711 -493.97363281 139.47998047 C-485.27343968 111.94504492 -472.41214142 86.03632905 -455.875 62.375 C-455.14152344 61.30507812 -454.40804687 60.23515625 -453.65234375 59.1328125 C-442.74248727 43.38641849 -430.15408918 29.14742995 -416.875 15.375 C-416.10414063 14.56289062 -415.33328125 13.75078125 -414.5390625 12.9140625 C-410.25637445 8.49153158 -405.63078623 4.61606853 -400.82421875 0.7734375 C-398.33743326 -1.24892845 -395.93424359 -3.33678285 -393.53735352 -5.46362305 C-348.17199743 -45.26727437 -287.77005247 -64.57950278 -228.875 -71.625 C-228.09390869 -71.72216309 -227.31281738 -71.81932617 -226.50805664 -71.91943359 C-146.99645296 -80.96425403 -60.08934754 -52.06285985 0 0 Z M-254.625 -42.4375 C-255.71006836 -42.22391846 -256.79513672 -42.01033691 -257.91308594 -41.7902832 C-269.44661169 -39.43191294 -280.6845603 -36.26308338 -291.875 -32.625 C-292.79200684 -32.32754883 -293.70901367 -32.03009766 -294.65380859 -31.72363281 C-335.92679653 -18.08149815 -370.77179375 5.44476193 -401.875 35.375 C-402.66648437 36.12523438 -403.45796875 36.87546875 -404.2734375 37.6484375 C-409.62789183 42.83358102 -414.22592394 48.55998846 -418.875 54.375 C-419.82396926 55.52341929 -420.77455964 56.67050046 -421.7265625 57.81640625 C-454.96218376 98.10348597 -474.75970645 147.90474528 -481.875 199.375 C-481.99359375 200.2107959 -482.1121875 201.0465918 -482.234375 201.90771484 C-488.10953346 245.17580889 -482.68730247 290.13928509 -468.875 331.375 C-468.6270166 332.12942383 -468.3790332 332.88384766 -468.12353516 333.66113281 C-444.45456495 404.774455 -391.7734848 462.60952707 -325.40234375 496.16015625 C-257.43654473 529.89953387 -180.16130143 533.94055651 -108.2265625 510.56640625 C-59.05243401 493.95677944 -13.01775969 463.43927369 19.125 422.375 C19.80046875 421.58996094 20.4759375 420.80492187 21.171875 419.99609375 C70.25867622 362.75801714 89.33451539 285.36136252 84.10717773 211.46386719 C79.0519883 147.59404944 51.03845836 83.7697794 4.71875 38.96875 C3.125 37.375 3.125 37.375 1.125 34.8125 C-1.82831404 31.21314852 -5.33553373 28.3860234 -8.875 25.375 C-9.91126609 24.46610757 -10.94634023 23.55585505 -11.98046875 22.64453125 C-64.32834828 -23.24474568 -131.42536049 -46.77774517 -200.75 -46.9375 C-201.64944336 -46.94126648 -202.54888672 -46.94503296 -203.47558594 -46.94891357 C-220.69300368 -46.98547778 -237.71310051 -45.80290678 -254.625 -42.4375 Z " fill="#050505" transform="translate(531.875,90.625)"/>
<path d="M0 0 C88.11 0 176.22 0 267 0 C267 14.88868613 267 14.88868613 261.25 23.0625 C260.04002605 24.89475097 258.83172934 26.7281105 257.625 28.5625 C257.01269531 29.47386719 256.40039062 30.38523438 255.76953125 31.32421875 C253.12494229 35.32321089 250.68736848 39.43515512 248.25 43.5625 C247.26028782 45.22075288 246.26935958 46.87828045 245.27734375 48.53515625 C244.49593018 49.84057373 244.49593018 49.84057373 243.69873047 51.17236328 C238.61621496 59.6325091 233.47469288 68.05728691 228.3474884 76.49040222 C225.72241964 80.80887304 223.10239951 85.13038078 220.484375 89.453125 C219.01070342 91.88559052 217.53673125 94.31787363 216.0625 96.75 C215.70038422 97.34744019 215.33826843 97.94488037 214.96517944 98.5604248 C211.06734068 104.9883358 207.14694891 111.39885358 203.125 117.75 C197.72948323 126.28368911 192.63459054 134.9998306 187.49230957 143.68725586 C180.67595199 155.20165071 173.77078385 166.65741381 166.78955078 178.07275391 C156.39406184 195.07710758 146.10403915 212.13928067 135.9465332 229.28686523 C131.15622791 237.37322368 126.34422999 245.44576974 121.5 253.5 C115.32016959 263.77696951 109.19216558 274.08406791 103.07537842 284.39862061 C97.88501817 293.1504913 92.67831963 301.89183385 87.43041992 310.609375 C83.63866339 316.91662187 79.8888431 323.24813028 76.1484375 329.5859375 C75.55377686 330.59293701 74.95911621 331.59993652 74.34643555 332.63745117 C72.89733139 335.09146173 71.44852483 337.54564745 70 340 C81.83207488 340.04661231 93.66412744 340.08201463 105.4962759 340.10362434 C110.9920981 340.11400281 116.48785687 340.12805178 121.98364258 340.15087891 C127.30048802 340.17282126 132.61727296 340.1846131 137.93416023 340.18975449 C139.94923923 340.19341225 141.96431541 340.20055321 143.97936821 340.21146011 C172.88787641 340.36152158 199.33543772 337.21817707 221 316 C233.17073049 302.66070299 241.08778166 286.49926504 248 270 C248.27392578 269.3517627 248.54785156 268.70352539 248.83007812 268.03564453 C250.24030318 264.69828863 251.62478576 261.35208472 253 258 C259.27 258 265.54 258 272 258 C271.3198858 264.12102776 270.54829679 270.12740482 269.50390625 276.18359375 C269.35146957 277.07329361 269.1990329 277.96299347 269.04197693 278.87965393 C268.71476316 280.78192152 268.38604078 282.68393015 268.0559082 284.58569336 C267.58851169 287.28715731 267.13078208 289.99011333 266.67382812 292.69335938 C262.6004741 316.23459229 257.689552 339.55224 253 363 C165.22 363 77.44 363 -13 363 C-13 349.50045998 -13 349.50045998 -9.81640625 344.6328125 C-9.13513672 343.56160156 -8.45386719 342.49039062 -7.75195312 341.38671875 C-7.02943359 340.31035156 -6.30691406 339.23398437 -5.5625 338.125 C-4.87478516 337.05636719 -4.18707031 335.98773438 -3.47851562 334.88671875 C-1.3419634 331.57555968 0.82720079 328.28746228 3 325 C9.46773148 315.13909596 15.58280483 305.10068051 21.5625 294.9375 C23.16637627 292.21650563 24.77191623 289.49650029 26.37890625 286.77734375 C26.76849014 286.11797318 27.15807404 285.4586026 27.5594635 284.7792511 C30.71832884 279.44625921 33.95448666 274.16479816 37.21508789 268.89331055 C39.65999972 264.93015227 42.05156462 260.93633293 44.4375 256.9375 C48.923022 249.43814305 53.45034764 241.96517032 57.9956665 234.50192261 C64.59212233 223.66941676 71.10570073 212.79130664 77.5625 201.875 C84.60140049 189.97736586 91.77192503 178.17172631 99.04296875 166.4140625 C103.21002622 159.67253285 107.32872299 152.90212003 111.4375 146.125 C111.96686661 145.25189178 111.96686661 145.25189178 112.50692749 144.36114502 C113.93529685 142.00501389 115.3635064 139.64878611 116.79133606 137.29232788 C119.26320862 133.21332119 121.73973653 129.13717014 124.21875 125.0625 C131.8985309 112.43665143 139.53854908 99.78807274 147.13195801 87.1100769 C153.23295568 76.92500697 159.37408743 66.76510995 165.55273438 56.62695312 C172.76073874 44.78682236 179.87497793 32.89017257 187 21 C175.0546925 21.08491048 163.10951123 21.17998311 151.16438484 21.28752708 C145.61596226 21.33717189 140.06755585 21.38350084 134.51904297 21.421875 C129.15023672 21.45913458 123.78157741 21.5055962 118.41289902 21.55806351 C116.3791452 21.57639407 114.34536016 21.59157786 112.31155777 21.60334396 C102.54703164 21.66178035 92.85832984 21.8376176 83.14404297 22.89697266 C82.44348345 22.97333639 81.74292393 23.04970013 81.02113533 23.12837791 C60.04097769 25.68883753 39.62546945 35.78297056 26.375 52.5 C17.36041815 65.24919433 11.50855096 78.94619108 6.72680664 93.75268555 C5.83581737 96.50765909 4.91562772 99.25311685 4 102 C-2.27 102 -8.54 102 -15 102 C-11.61639795 77.0449635 -8.2033349 52.09443909 -4.58547974 27.17211914 C-4.27879608 25.05945921 -3.97302842 22.9466661 -3.66818237 20.83374023 C-3.24273322 17.88871286 -2.81346108 14.944271 -2.3828125 12 C-2.25706345 11.12734497 -2.13131439 10.25468994 -2.00175476 9.35559082 C-1.52559001 6.12796003 -1.0339791 3.10193731 0 0 Z " fill="#050404" transform="translate(206,147)"/>
<path d="M0 0 C0.66 0.33 1.32 0.66 2 1 C-1.85421412 9.6309795 -1.85421412 9.6309795 -6 12 C-4.43358249 7.69235185 -2.31663844 3.93828536 0 0 Z " fill="#E7E7E5" transform="translate(434,222)"/>
</svg>
